<svg xmlns="http://www.w3.org/2000/svg" xmlns:xlink="http://www.w3.org/1999/xlink" viewBox="0 0 176.25 104.99"><defs><style>.cls-1{fill:#d9e021;}.cls-2{fill:url(#linear-gradient);}.cls-3{fill:url(#linear-gradient-2);}.cls-4{fill:url(#linear-gradient-3);}.cls-5{fill:url(#linear-gradient-4);}.cls-6{fill:url(#linear-gradient-5);}.cls-7{fill:url(#linear-gradient-6);}.cls-8{fill:url(#linear-gradient-7);}.cls-9{fill:url(#linear-gradient-8);}.cls-10{fill:url(#linear-gradient-9);}.cls-11{fill:url(#linear-gradient-10);}.cls-12{fill:url(#linear-gradient-11);}.cls-13{fill:url(#linear-gradient-12);}.cls-14{fill:#fff;}.cls-15{fill:url(#linear-gradient-13);}.cls-16{fill:url(#linear-gradient-14);}.cls-17{fill:url(#linear-gradient-15);}.cls-18{fill:url(#linear-gradient-16);}.cls-19{fill:url(#linear-gradient-17);}.cls-20{fill:url(#linear-gradient-18);}.cls-21{fill:url(#linear-gradient-19);}</style><linearGradient id="linear-gradient" x1="1.22" y1="49.37" x2="29.89" y2="20.7" gradientUnits="userSpaceOnUse"><stop offset="0" stop-color="#fff"/><stop offset="1" stop-color="#e6e6e6"/></linearGradient><linearGradient id="linear-gradient-2" x1="35.03" y1="45.32" x2="53.23" y2="27.12" xlink:href="#linear-gradient"/><linearGradient id="linear-gradient-3" x1="51.22" y1="42.74" x2="72.31" y2="21.64" xlink:href="#linear-gradient"/><linearGradient id="linear-gradient-4" x1="81.35" y1="44.93" x2="103.43" y2="22.85" xlink:href="#linear-gradient"/><linearGradient id="linear-gradient-5" x1="104.11" y1="40.51" x2="123.09" y2="21.53" xlink:href="#linear-gradient"/><linearGradient id="linear-gradient-6" x1="128.49" y1="44.75" x2="145.02" y2="28.22" xlink:href="#linear-gradient"/><linearGradient id="linear-gradient-7" x1="146.59" y1="47.52" x2="168.85" y2="25.26" xlink:href="#linear-gradient"/><linearGradient id="linear-gradient-8" x1="23.71" y1="80.68" x2="41.09" y2="63.3" xlink:href="#linear-gradient"/><linearGradient id="linear-gradient-9" x1="50.19" y1="95.76" x2="99.96" y2="45.99" xlink:href="#linear-gradient"/><linearGradient id="linear-gradient-10" x1="97.83" y1="90.44" x2="127.93" y2="60.34" xlink:href="#linear-gradient"/><linearGradient id="linear-gradient-11" x1="120.58" y1="97.04" x2="148" y2="69.61" xlink:href="#linear-gradient"/><linearGradient id="linear-gradient-12" x1="151.02" y1="89.15" x2="176.53" y2="63.64" xlink:href="#linear-gradient"/><linearGradient id="linear-gradient-13" x1="37.19" y1="2.17" x2="37.19" y2="12.88" gradientUnits="userSpaceOnUse"><stop offset="0" stop-color="#ff152f"/><stop offset="1" stop-color="#f600ff"/></linearGradient><linearGradient id="linear-gradient-14" x1="46.83" y1="1.92" x2="46.83" y2="12.88" xlink:href="#linear-gradient-13"/><linearGradient id="linear-gradient-15" x1="57.12" y1="2.17" x2="57.12" y2="12.88" xlink:href="#linear-gradient-13"/><linearGradient id="linear-gradient-16" x1="66.55" y1="1.92" x2="66.55" y2="12.82" xlink:href="#linear-gradient-13"/><linearGradient id="linear-gradient-17" x1="76.75" y1="1.92" x2="76.75" y2="12.88" xlink:href="#linear-gradient-13"/><linearGradient id="linear-gradient-18" x1="86.71" y1="1.92" x2="86.71" y2="12.88" xlink:href="#linear-gradient-13"/><linearGradient id="linear-gradient-19" x1="96.8" y1="2.17" x2="96.8" y2="12.63" xlink:href="#linear-gradient-13"/></defs><g id="Layer_2" data-name="Layer 2"><g id="Layer_1-2" data-name="Layer 1"><path d="M14.89,58.19A21.64,21.64,0,0,1,1.27,56.36a2.68,2.68,0,0,1-.92-3.68q1.88-4,3.77-7.93a3.92,3.92,0,0,1,2.1-2,5.08,5.08,0,0,1,.52-.15,2.59,2.59,0,0,1,2,.39,9.94,9.94,0,0,0,3.14,1.55,5.92,5.92,0,0,0,2.63.15,2.63,2.63,0,0,0,1.19-.4l.08-.09a3.41,3.41,0,0,0-.91-.31c-.65-.15-1.42-.3-2.33-.46-1.12-.15-2.32-.37-3.48-.61A11.21,11.21,0,0,1,5.3,41.34a8.28,8.28,0,0,1-2.83-3.19,11.27,11.27,0,0,1-1.08-5.27,16.88,16.88,0,0,1,1.05-5.94,17,17,0,0,1,7.74-9,18.52,18.52,0,0,1,5.93-2,22.66,22.66,0,0,1,6-.17,22.29,22.29,0,0,1,6,1.45A2.72,2.72,0,0,1,29.34,21C28.17,23.49,27,26,25.82,28.45a3.7,3.7,0,0,1-2.05,1.88l-.12,0a11.51,11.51,0,0,1,4.72,2.89,11.15,11.15,0,0,1,2.7,7.88,16.42,16.42,0,0,1-1.11,6,15.83,15.83,0,0,1-3.35,5.21,18.53,18.53,0,0,1-5.19,3.73A23.13,23.13,0,0,1,14.89,58.19Zm2.5-29.11a7.91,7.91,0,0,0,1,.17c.63.08,1.27.17,1.89.28a5.29,5.29,0,0,0-1.07-.38,4.56,4.56,0,0,0-1.71-.08Z"/><path d="M44.66,53.93a16.42,16.42,0,0,1-5.88-.42,13.41,13.41,0,0,1-5-2.47,12.78,12.78,0,0,1-3.47-4.34A13.7,13.7,0,0,1,29,40.61a16.78,16.78,0,0,1,1.25-6.43,18.08,18.08,0,0,1,3.39-5.35A17.72,17.72,0,0,1,38.7,25a17.27,17.27,0,0,1,6.19-1.8,14,14,0,0,1,6.89.95,2.71,2.71,0,0,1,1.66,2.55v7a3.31,3.31,0,0,1-1.6,2.78,3.23,3.23,0,0,1-1.41.47,2.85,2.85,0,0,1-1.69-.37,4.32,4.32,0,0,0-2.62-.69,2.94,2.94,0,0,0-1.09.31,2.55,2.55,0,0,0-.81.6,2.5,2.5,0,0,0-.53.84,3,3,0,0,0-.2,1.14,2.55,2.55,0,0,0,.2,1,2.12,2.12,0,0,0,.53.76A1.9,1.9,0,0,0,45,41a3,3,0,0,0,1.13.09,4.19,4.19,0,0,0,2.44-1.16,3.2,3.2,0,0,1,1.87-.82,2.92,2.92,0,0,1,1.31.18,2.72,2.72,0,0,1,1.7,2.57v7a3.32,3.32,0,0,1-1.81,2.9A19.57,19.57,0,0,1,44.66,53.93Z"/><path d="M55.11,52.28a2.73,2.73,0,0,1-3-2.76V26.27a3.32,3.32,0,0,1,3-3.24c2.75-.21,5.49-.39,8.24-.55a2.88,2.88,0,0,1,2.07.71A12.08,12.08,0,0,1,71,21.61l.71,0a7.79,7.79,0,0,1,1.41.08,2.9,2.9,0,0,1,2.49,2.88v7.84A3.12,3.12,0,0,1,74.22,35a3.2,3.2,0,0,1-1.59.5,3,3,0,0,1-1.35-.27,4.7,4.7,0,0,0-2.2-.41c-1.46.07-1.86.56-2,.72a5,5,0,0,0-.73,3.07v10a3.22,3.22,0,0,1-3,3.17C60.6,51.89,57.86,52.08,55.11,52.28Z"/><path d="M87.48,51.76a15,15,0,0,1-5.89-1.14,14.16,14.16,0,0,1-4.73-3.19,14.78,14.78,0,0,1-3.1-4.82,16.79,16.79,0,0,1,0-11.85,15.9,15.9,0,0,1,3-5,14.59,14.59,0,0,1,4.66-3.45,14.19,14.19,0,0,1,6-1.3A12.87,12.87,0,0,1,93,22.27a3,3,0,0,1,1.62-.44c2.76,0,5.53.11,8.29.2a3.15,3.15,0,0,1,3,3.11V48.4a2.87,2.87,0,0,1-3,2.88c-2.76-.09-5.53-.16-8.29-.2A3,3,0,0,1,93,50.57,12.91,12.91,0,0,1,87.48,51.76Zm2.1-17.63a2.37,2.37,0,0,0-1,.17,2,2,0,0,0-.69.45,2.68,2.68,0,0,0-.52.77,2.1,2.1,0,0,0-.16.82,2.44,2.44,0,0,0,.68,1.71,1.86,1.86,0,0,0,.69.46,2.37,2.37,0,0,0,1,.18,2.46,2.46,0,0,0,.91-.17,2.07,2.07,0,0,0,.68-.45,3,3,0,0,0,.56-.82,2,2,0,0,0,.17-.81,2.06,2.06,0,0,0-.18-.85,2.67,2.67,0,0,0-.55-.83,1.92,1.92,0,0,0-.68-.45A2.31,2.31,0,0,0,89.58,34.13Z"/><path d="M109.48,51.56a3.19,3.19,0,0,1-3-3.14V35a3.16,3.16,0,0,1-2.73-3.1V25.06a2.87,2.87,0,0,1,2.73-2.88v-4a2.85,2.85,0,0,1,3-2.87q4.13.21,8.24.49a3.28,3.28,0,0,1,3,3.22v4l1.67.12a3.33,3.33,0,0,1,3,3.25v6.85a2.73,2.73,0,0,1-3,2.75l-1.67-.13V49.26a2.77,2.77,0,0,1-3,2.78Q113.61,51.76,109.48,51.56Z"/><path d="M137.3,54.55a18.59,18.59,0,0,1-5.89-1.68,17.71,17.71,0,0,1-5-3.55,17.08,17.08,0,0,1-3.49-5.09,15.39,15.39,0,0,1-1.32-6.37,14.87,14.87,0,0,1,1.25-6.16,13.11,13.11,0,0,1,8.5-7.36,15.69,15.69,0,0,1,6.19-.47,16.16,16.16,0,0,1,6.87,2.43,3.51,3.51,0,0,1,1.66,2.9v7a2.58,2.58,0,0,1-1.6,2.45,2.88,2.88,0,0,1-1.4.16,3.28,3.28,0,0,1-1.68-.73,5.23,5.23,0,0,0-2.62-1.25,3,3,0,0,0-1.09.07,2.11,2.11,0,0,0-.81.43,1.89,1.89,0,0,0-.53.73,2.71,2.71,0,0,0-.19,1.1,2.86,2.86,0,0,0,.19,1.09,2.89,2.89,0,0,0,.53.87,2.52,2.52,0,0,0,.77.58,3.52,3.52,0,0,0,1.13.33,3.43,3.43,0,0,0,2.43-.64,2.73,2.73,0,0,1,1.87-.42,3.25,3.25,0,0,1,1.3.47,3.5,3.5,0,0,1,1.7,2.92v7a2.55,2.55,0,0,1-1.81,2.52A17.3,17.3,0,0,1,137.3,54.55Z"/><path d="M165.09,57.91a3.73,3.73,0,0,1-3-3.53V42.64a9.94,9.94,0,0,0-.18-2.16c0-.11-.06-.19-.07-.23a1.05,1.05,0,0,0-.55-.23c-.34-.06-.78-.09-1,.08a2.32,2.32,0,0,0-.34,1.5V54a2.48,2.48,0,0,1-3,2.51q-4.08-.66-8.18-1.23a3.57,3.57,0,0,1-3-3.41V14.27a2.54,2.54,0,0,1,3-2.59q4.09.57,8.18,1.23a3.68,3.68,0,0,1,3,3.49V27.93a13.14,13.14,0,0,1,4.4.1,13.8,13.8,0,0,1,8.78,5,14.65,14.65,0,0,1,3,9.2V57.06a2.37,2.37,0,0,1-3,2.39Q169.17,58.64,165.09,57.91Z"/><path d="M23.15,27.48a9,9,0,0,0-2.89-1.29,7,7,0,0,0-2.8-.12,5.25,5.25,0,0,0-2.79,1.29,3.08,3.08,0,0,0-1.08,2.32,1.81,1.81,0,0,0,.54,1.4,3.63,3.63,0,0,0,1.42.77,10.42,10.42,0,0,0,2,.42q1.11.13,2.19.33a11.16,11.16,0,0,1,6.35,2.91,8.46,8.46,0,0,1,2,6,13.49,13.49,0,0,1-.88,4.89,12.24,12.24,0,0,1-2.58,4,14.93,14.93,0,0,1-4.16,3,19.67,19.67,0,0,1-5.57,1.75A18.75,18.75,0,0,1,3,53.55q1.89-4,3.77-7.9a12.08,12.08,0,0,0,3.92,1.9,8.74,8.74,0,0,0,3.83.19,5.46,5.46,0,0,0,3.22-1.54,3.59,3.59,0,0,0,1.06-2.44,2.8,2.8,0,0,0-.27-1.29,2.28,2.28,0,0,0-.9-.9A6.22,6.22,0,0,0,16,41c-.67-.15-1.49-.32-2.45-.48-1.15-.17-2.26-.37-3.36-.6a8.46,8.46,0,0,1-2.92-1.21,6.06,6.06,0,0,1-2.07-2.34,8.69,8.69,0,0,1-.79-4,13.57,13.57,0,0,1,.83-4.76,13,13,0,0,1,6-7,15.35,15.35,0,0,1,4.89-1.66,20.11,20.11,0,0,1,5.28-.15A19.76,19.76,0,0,1,26.68,20C25.5,22.51,24.33,25,23.15,27.48Z"/><path d="M50.43,33.94a7,7,0,0,0-4.31-1.06,6.4,6.4,0,0,0-2.21.63,6.28,6.28,0,0,0-3,3.24,6.13,6.13,0,0,0-.43,2.34,5.37,5.37,0,0,0,.43,2.2,4.89,4.89,0,0,0,1.18,1.64,4.62,4.62,0,0,0,1.79,1,5.88,5.88,0,0,0,2.23.19,7.57,7.57,0,0,0,4.31-2v7a16.1,16.1,0,0,1-5.77,1.85,13.35,13.35,0,0,1-4.83-.35,10.53,10.53,0,0,1-4-2A10.14,10.14,0,0,1,33,45.08a11,11,0,0,1-1-4.88A13.36,13.36,0,0,1,33,35a14.38,14.38,0,0,1,11.92-8.81,11.35,11.35,0,0,1,5.54.75Z"/><path d="M55.11,26c2.75-.21,5.49-.39,8.24-.55v3.81a10.15,10.15,0,0,1,3.23-3.37A8.91,8.91,0,0,1,71,24.61l.71,0a4.75,4.75,0,0,1,.88.06v7.84a7.54,7.54,0,0,0-3.55-.68,5.56,5.56,0,0,0-4.3,1.91,7.84,7.84,0,0,0-1.43,5v10c-2.75.15-5.49.34-8.24.54Z"/><path d="M94.64,24.83c2.76,0,5.53.11,8.29.2V48.28c-2.76-.09-5.53-.16-8.29-.2V45.5a8.74,8.74,0,0,1-7.16,3.26,12,12,0,0,1-4.69-.9,11.2,11.2,0,0,1-3.74-2.55,11.57,11.57,0,0,1-2.48-3.88,13.75,13.75,0,0,1,0-9.68,12.73,12.73,0,0,1,2.41-4,11.84,11.84,0,0,1,3.69-2.71,11.18,11.18,0,0,1,4.74-1,9.51,9.51,0,0,1,7.25,3.09ZM84.25,36.35a5.44,5.44,0,0,0,.41,2.11,5.14,5.14,0,0,0,1.12,1.69,5,5,0,0,0,1.68,1.13,5.68,5.68,0,0,0,2.12.41,5.34,5.34,0,0,0,2.07-.4,5.07,5.07,0,0,0,1.69-1.11,5.89,5.89,0,0,0,1.14-1.67,4.77,4.77,0,0,0,.43-2,5.09,5.09,0,0,0-.43-2.07,6,6,0,0,0-1.14-1.71,4.88,4.88,0,0,0-1.69-1.15,5.18,5.18,0,0,0-2.07-.42,5.3,5.3,0,0,0-2.12.4,5.2,5.2,0,0,0-1.68,1.14,5.46,5.46,0,0,0-1.12,1.66A5.07,5.07,0,0,0,84.25,36.35Z"/><path d="M117.72,32.63V49q-4.11-.28-8.24-.48V32.15L106.75,32V25.18l2.73.12v-7q4.13.21,8.24.49v7l4.68.34V33C120.84,32.85,119.28,32.74,117.72,32.63Z"/><path d="M143.05,35.79a8.42,8.42,0,0,0-4.3-2,5.51,5.51,0,0,0-2.2.16,4.77,4.77,0,0,0-1.79,1,4.53,4.53,0,0,0-1.21,1.64,5.63,5.63,0,0,0-.43,2.24,6.18,6.18,0,0,0,.43,2.29A6.34,6.34,0,0,0,134.73,43a5.94,5.94,0,0,0,1.8,1.36,6.49,6.49,0,0,0,2.22.66,6.21,6.21,0,0,0,4.3-1.06v7a14,14,0,0,1-5.75.62,15,15,0,0,1-4.84-1.38,14.48,14.48,0,0,1-4-2.87,14,14,0,0,1-2.79-4.1,12.31,12.31,0,0,1-1-5.1,12,12,0,0,1,1-5,10.42,10.42,0,0,1,6.84-5.88,13.42,13.42,0,0,1,10.63,1.56Z"/><path d="M148.84,14.68q4.09.57,8.18,1.23V33.23A7,7,0,0,1,160.4,31a10,10,0,0,1,4,0A10.25,10.25,0,0,1,171,34.69a11,11,0,0,1,2.23,7V56.45q-4.06-.81-8.14-1.54V43.17a13,13,0,0,0-.27-2.91,4.09,4.09,0,0,0-.9-1.83A4.5,4.5,0,0,0,161.31,37a3.48,3.48,0,0,0-3.18.71A4.53,4.53,0,0,0,157,41.11V53.53q-4.08-.66-8.18-1.23Z"/><path d="M27.41,86.9a11.7,11.7,0,0,1-4-.67,10.31,10.31,0,0,1-3.35-2,9.38,9.38,0,0,1-3.09-7,9.89,9.89,0,0,1,.53-3.3,8.58,8.58,0,0,1,1.85-3,11,11,0,0,1,1.9-1.62,8.5,8.5,0,0,1-.87-3.67,8.85,8.85,0,0,1,.84-3.82,9.21,9.21,0,0,1,2.27-3,10.19,10.19,0,0,1,3.27-1.89,11.91,11.91,0,0,1,7.82,0,10.07,10.07,0,0,1,3.29,1.92,9.19,9.19,0,0,1,2.24,3,8.81,8.81,0,0,1,.82,3.79,9.18,9.18,0,0,1-.33,2.51v0a3,3,0,0,1,1.09.67l3.44,3.31a3,3,0,0,1,.33,3.94A20.85,20.85,0,0,1,44,77.77l0,0,3.21,3.41a3,3,0,0,1-2.19,5H37.48a3,3,0,0,1-2.17-.92l-.4-.42A16.2,16.2,0,0,1,27.41,86.9Z"/><path d="M36.55,74.33a26.91,26.91,0,0,0,3-3.34L43,74.3a15.09,15.09,0,0,1-1.19,1.44q-.66.74-1.53,1.53l-.47.44L45,83.25H37.48l-2-2.13a14.63,14.63,0,0,1-8,2.78,8.74,8.74,0,0,1-3-.49A7,7,0,0,1,22.06,82a6.25,6.25,0,0,1-1.55-2.12A6.4,6.4,0,0,1,20,77.21a6.81,6.81,0,0,1,.36-2.3A5.39,5.39,0,0,1,21.53,73,7,7,0,0,1,23,71.75a15.38,15.38,0,0,1,1.94-1l.65-.31-.41-.47a7.06,7.06,0,0,1-1.79-4.3,5.86,5.86,0,0,1,.55-2.54,6.39,6.39,0,0,1,1.54-2,7.1,7.1,0,0,1,2.31-1.33,8.37,8.37,0,0,1,2.88-.48,8.54,8.54,0,0,1,2.91.48,7,7,0,0,1,2.3,1.35,6.06,6.06,0,0,1,1.52,2,5.88,5.88,0,0,1,.54,2.52,6.36,6.36,0,0,1-.21,1.69A4.36,4.36,0,0,1,37,68.74,6.49,6.49,0,0,1,35.64,70a16.64,16.64,0,0,1-2,1.23Zm-8.11-.83c-1.47.91-2.2,1.81-2.2,2.72a2,2,0,0,0,.21.92,2.36,2.36,0,0,0,.59.71,3,3,0,0,0,.85.46,3,3,0,0,0,1,.17,6,6,0,0,0,3.19-1Zm2.5-5.08c1.45-.87,2.17-1.84,2.17-2.91A2.2,2.2,0,0,0,32.54,64a2,2,0,0,0-3.42,1.32C29.12,66.06,29.73,67.1,30.94,68.42Z"/><path d="M78.34,103.78a3,3,0,0,1-3-2.87q-.7-7.25-1.4-14.5-4,8.09-8,16.25a3.14,3.14,0,0,1-2.61,1.84L53.18,105a3,3,0,0,1-3-3q-1.29-21.57-2.58-43.1a3.81,3.81,0,0,1,.8-2.59,3.06,3.06,0,0,1,2.19-1.21c3.45-.2,6.91-.36,10.37-.5a3,3,0,0,1,3,3.15q.25,7.9.52,15.81,4.27-8.85,8.57-17.59a3,3,0,0,1,2.62-1.78q3.94-.06,7.91-.07a3.15,3.15,0,0,1,3,3L88,73q3.83-8.59,7.64-17a2.9,2.9,0,0,1,2.69-1.78c3.47.07,6.94.18,10.41.31a3.11,3.11,0,0,1,2.57,1.67,3.39,3.39,0,0,1,.08,3.17c-6.75,13.47-13.5,27.57-20.24,42a3.15,3.15,0,0,1-2.65,1.89Z"/><path d="M103.9,102.55a2.73,2.73,0,0,1-2.34-1.12,3.42,3.42,0,0,1-.58-2.76q3-14.36,6-28.43a3,3,0,0,1,2.93-2.48l1.62,0a7.14,7.14,0,0,1-1.63-1.66A8,8,0,0,1,108.6,63a9,9,0,0,1,.08-3.53A9.73,9.73,0,0,1,110,56.28a9.92,9.92,0,0,1,2.11-2.4,9.27,9.27,0,0,1,2.7-1.56,8,8,0,0,1,3.2-.47,7.35,7.35,0,0,1,3.21.94A7.62,7.62,0,0,1,123.67,55a8,8,0,0,1,1.3,3.1,8.36,8.36,0,0,1-.08,3.41,9.28,9.28,0,0,1-1.29,3.06A10.12,10.12,0,0,1,121.49,67a10,10,0,0,1-1.66,1.11,3.19,3.19,0,0,1,1.62,1.15A3.29,3.29,0,0,1,122,71.9q-3,13.62-6,27.6a3.25,3.25,0,0,1-2.92,2.61Z"/><path d="M137.64,101a2.84,2.84,0,0,1-2.35-1,3,3,0,0,1-.57-2.56q1.51-6.75,3-13.36a11.61,11.61,0,0,0,.36-2.45h0l-.28,0a2.59,2.59,0,0,0-1.9.62,4.53,4.53,0,0,0-1.24,2.45q-1.62,7.06-3.22,14.27a3.21,3.21,0,0,1-2.92,2.52l-9.19.43a2.74,2.74,0,0,1-2.34-1.09,3.28,3.28,0,0,1-.58-2.68q3-14,6-27.54a2.91,2.91,0,0,1,2.92-2.35q4.61.16,9.19.37a3.12,3.12,0,0,1,2,.82l.75-.28a15.69,15.69,0,0,1,5.74-.68,13.73,13.73,0,0,1,5.85,1.53,10.61,10.61,0,0,1,3.94,3.72A8.38,8.38,0,0,1,154.1,78a16.8,16.8,0,0,1-.53,4.23q-1.9,7.88-3.83,16a3.17,3.17,0,0,1-2.92,2.39Z"/><path d="M159.4,101a8.37,8.37,0,0,1-3.46-.53,6.51,6.51,0,0,1-4.12-5,8,8,0,0,1,.1-3.4,9.66,9.66,0,0,1,1.4-3.15,10.45,10.45,0,0,1,2.13-2.32A2.73,2.73,0,0,1,155,84.3q2.92-12,5.84-23.43a2.56,2.56,0,0,1,2.93-1.8q4.75.59,9.51,1.26a3.66,3.66,0,0,1,2.34,1.32,2.59,2.59,0,0,1,.58,2.29q-2.91,10.62-5.83,21.87a2.76,2.76,0,0,1-1.58,1.78,6.59,6.59,0,0,1,1,2.31,7,7,0,0,1-.11,3.17,8.84,8.84,0,0,1-1.39,3,11.41,11.41,0,0,1-2.33,2.43,12.53,12.53,0,0,1-3,1.73A11.06,11.06,0,0,1,159.4,101Z"/><path d="M61,58l.9,27.91c4.6-9.52,9.2-19,13.8-28.33q4-.08,7.91-.1Q84.81,71.23,86,85c4.09-9.3,8.19-18.48,12.29-27.45q5.2.09,10.41.26C102,71.33,95.22,85.48,88.48,100l-10.15.45Q77.13,88,75.93,75.6c-4.21,8.43-8.41,17-12.61,25.51l-10.14.48Q51.88,80,50.59,58.46,55.77,58.16,61,58Z"/><path d="M111.61,60.28a6.34,6.34,0,0,1,.87-2.12,7.15,7.15,0,0,1,1.49-1.7,6.81,6.81,0,0,1,1.91-1.11A5.25,5.25,0,0,1,118,55a4.5,4.5,0,0,1,1.92.53,4.31,4.31,0,0,1,1.39,1.26,4.49,4.49,0,0,1,.73,1.77,5.15,5.15,0,0,1,0,2.1,6.51,6.51,0,0,1-.87,2.07,7.53,7.53,0,0,1-1.5,1.68,6.84,6.84,0,0,1-1.91,1.12,5.3,5.3,0,0,1-2.1.37,4.12,4.12,0,0,1-1.91-.48,3.84,3.84,0,0,1-1.39-1.23,4.33,4.33,0,0,1-.74-1.79A5.23,5.23,0,0,1,111.61,60.28Zm7.49,10.85q-3,13.71-6,27.77c-3.07.13-6.13.25-9.19.39q3-14.3,6-28.3C113,71,116,71.07,119.1,71.13Z"/><path d="M125.39,71.28q4.61.12,9.19.29c-.25,1.11-.51,2.22-.76,3.33A11.16,11.16,0,0,1,143,71.36a10.37,10.37,0,0,1,4.49,1.09A7.22,7.22,0,0,1,150.26,75a5.59,5.59,0,0,1,.84,2.88,14.38,14.38,0,0,1-.45,3.57q-1.92,7.95-3.83,16.13l-9.18.33q1.52-6.68,3-13.24a14.29,14.29,0,0,0,.44-3.11,3,3,0,0,0-.55-1.91,2.63,2.63,0,0,0-1.17-.89,4.76,4.76,0,0,0-1.56-.29,5.47,5.47,0,0,0-3.9,1.35,7.47,7.47,0,0,0-2.17,4.06q-1.61,7.13-3.21,14.38l-9.18.36Q122.38,84.77,125.39,71.28Z"/><path d="M154.84,92.68a6.57,6.57,0,0,1,1-2.21,7.71,7.71,0,0,1,3.9-3,7,7,0,0,1,2.41-.41,5.37,5.37,0,0,1,2.2.44A4.2,4.2,0,0,1,166,88.67a3.93,3.93,0,0,1,.83,1.73,4.56,4.56,0,0,1-.08,2.1,6.49,6.49,0,0,1-1,2.12A8.05,8.05,0,0,1,164,96.41a8.73,8.73,0,0,1-2.19,1.24,7.38,7.38,0,0,1-2.42.51,5.23,5.23,0,0,1-2.2-.35,3.84,3.84,0,0,1-2.43-2.93A5.14,5.14,0,0,1,154.84,92.68Zm3-7.7q2.93-11.85,5.84-23.15,4.77.54,9.52,1.14-2.91,10.78-5.83,22.17Z"/><path class="cls-1" d="M14.9,56.37a20.73,20.73,0,0,1-13-1.75,1.78,1.78,0,0,1-.62-2.45C2.49,49.52,3.74,46.88,5,44.25a2.63,2.63,0,0,1,1.4-1.31l.35-.1a1.72,1.72,0,0,1,1.32.26,10.87,10.87,0,0,0,3.4,1.66,7.05,7.05,0,0,0,3,.15,3.38,3.38,0,0,0,1.87-.77,1.3,1.3,0,0,0,.43-.88,1,1,0,0,0-.08-.46.79.79,0,0,0-.3-.26,4.59,4.59,0,0,0-1.19-.42c-.65-.15-1.44-.3-2.37-.46-1.13-.16-2.3-.36-3.44-.61A10.13,10.13,0,0,1,6,39.64a7.58,7.58,0,0,1-2.58-2.9,10.49,10.49,0,0,1-1-4.86A15.66,15.66,0,0,1,10.54,18a17.51,17.51,0,0,1,5.57-1.93,22.11,22.11,0,0,1,5.77-.18,21.42,21.42,0,0,1,5.74,1.39,1.81,1.81,0,0,1,.84,2.55l-3.53,7.44a2.47,2.47,0,0,1-1.36,1.26,2.13,2.13,0,0,1-.42.1,1.74,1.74,0,0,1-1.25-.25,7.4,7.4,0,0,0-2.36-1.06,5.23,5.23,0,0,0-2.07-.09,3,3,0,0,0-1.6.69.66.66,0,0,0-.29.58.3.3,0,0,0,0,.14,2.23,2.23,0,0,0,.82.43,9.84,9.84,0,0,0,1.66.35c.76.09,1.52.2,2.27.33a12.81,12.81,0,0,1,7.25,3.4,10.24,10.24,0,0,1,2.48,7.26,15.44,15.44,0,0,1-1,5.67A14.52,14.52,0,0,1,26,50.9a17.54,17.54,0,0,1-4.84,3.5A23,23,0,0,1,14.9,56.37Z"/><path class="cls-1" d="M23.15,26.64a8.88,8.88,0,0,0-2.89-1.29,7.14,7.14,0,0,0-2.79-.11,5.25,5.25,0,0,0-2.8,1.29,3.1,3.1,0,0,0-1.08,2.32,1.79,1.79,0,0,0,.54,1.4,3.86,3.86,0,0,0,1.42.78,11.7,11.7,0,0,0,2,.41c.74.09,1.47.2,2.19.32a11.12,11.12,0,0,1,6.35,2.9,8.47,8.47,0,0,1,2,6,13.23,13.23,0,0,1-.88,4.88,12.39,12.39,0,0,1-2.58,4,14.87,14.87,0,0,1-4.15,3,20.11,20.11,0,0,1-5.57,1.77A18.8,18.8,0,0,1,3,52.75c1.26-2.64,2.51-5.28,3.77-7.91a12.24,12.24,0,0,0,3.91,1.9,8.88,8.88,0,0,0,3.83.17,5.49,5.49,0,0,0,3.23-1.54,3.65,3.65,0,0,0,1.06-2.44,2.65,2.65,0,0,0-.28-1.29,2.22,2.22,0,0,0-.9-.9,6,6,0,0,0-1.64-.6c-.68-.16-1.5-.32-2.46-.49-1.14-.16-2.26-.36-3.35-.59a8.5,8.5,0,0,1-2.93-1.2,6.11,6.11,0,0,1-2.06-2.34,8.64,8.64,0,0,1-.79-4,13.59,13.59,0,0,1,.83-4.77,13.31,13.31,0,0,1,2.34-4,13.07,13.07,0,0,1,3.69-3,15.23,15.23,0,0,1,4.88-1.68,20.35,20.35,0,0,1,10.57,1.1Z"/><path class="cls-1" d="M44.66,52.06a15.4,15.4,0,0,1-5.53-.39,12.49,12.49,0,0,1-4.69-2.31A11.87,11.87,0,0,1,31.2,45.3,12.72,12.72,0,0,1,30,39.62a15.7,15.7,0,0,1,1.17-6A16.65,16.65,0,0,1,44.89,23.33a13.29,13.29,0,0,1,6.44.88,1.81,1.81,0,0,1,1.11,1.7v7a2.22,2.22,0,0,1-1.07,1.86,2.18,2.18,0,0,1-.94.31,1.94,1.94,0,0,1-1.13-.25,5.18,5.18,0,0,0-3.18-.8,4.11,4.11,0,0,0-1.46.41,4,4,0,0,0-1.14.85,3.87,3.87,0,0,0-.75,1.19A4,4,0,0,0,42.49,38a3.56,3.56,0,0,0,.27,1.44,3,3,0,0,0,.76,1.05,2.79,2.79,0,0,0,1.1.6,4.11,4.11,0,0,0,1.5.12,5.33,5.33,0,0,0,3.06-1.45,2.29,2.29,0,0,1,1.25-.54,1.83,1.83,0,0,1,.87.12,1.81,1.81,0,0,1,1.14,1.71v7A2.21,2.21,0,0,1,51.23,50,18.42,18.42,0,0,1,44.66,52.06Z"/><path class="cls-1" d="M50.43,33.06A7,7,0,0,0,46.12,32a6.26,6.26,0,0,0-4,2,6.05,6.05,0,0,0-1.63,4.23,5.33,5.33,0,0,0,.43,2.2,4.89,4.89,0,0,0,1.18,1.64,4.62,4.62,0,0,0,1.79,1,6.08,6.08,0,0,0,2.23.19,7.59,7.59,0,0,0,4.31-2v7a16.13,16.13,0,0,1-5.77,1.86,13.58,13.58,0,0,1-4.83-.34,10.75,10.75,0,0,1-4-2A10.26,10.26,0,0,1,33,44.22a10.91,10.91,0,0,1-1-4.87,13.44,13.44,0,0,1,1-5.19,14.16,14.16,0,0,1,6.82-7.35,14.58,14.58,0,0,1,5.1-1.48,11.35,11.35,0,0,1,5.54.75Z"/><path class="cls-1" d="M55.11,50.4a1.82,1.82,0,0,1-2-1.84V25.31a2.19,2.19,0,0,1,2-2.16c2.75-.21,5.49-.4,8.24-.56a1.89,1.89,0,0,1,1.81,1c.13-.09.27-.19.41-.27A10.88,10.88,0,0,1,71,21.72l.71,0a6.94,6.94,0,0,1,1.24.08,1.92,1.92,0,0,1,1.65,1.91v7.85a2.09,2.09,0,0,1-1,1.73,2.1,2.1,0,0,1-2,.16,5.56,5.56,0,0,0-2.65-.5c-1.93.09-2.56.86-2.76,1.12a5.89,5.89,0,0,0-1,3.72v10a2.15,2.15,0,0,1-2,2.11C60.6,50,57.86,50.19,55.11,50.4Z"/><path class="cls-1" d="M55.11,25.15c2.75-.21,5.49-.4,8.24-.56V28.4A10.15,10.15,0,0,1,66.58,25,8.91,8.91,0,0,1,71,23.72l.71,0a4.75,4.75,0,0,1,.88.06v7.84a7.54,7.54,0,0,0-3.55-.67,5.53,5.53,0,0,0-4.3,1.91,7.84,7.84,0,0,0-1.43,5v10c-2.75.15-5.49.34-8.24.55Z"/><path class="cls-1" d="M87.48,49.86a14.13,14.13,0,0,1-5.49-1,13.29,13.29,0,0,1-4.4-3,13.68,13.68,0,0,1-2.89-4.51,15.74,15.74,0,0,1,0-11.12,14.74,14.74,0,0,1,2.81-4.64,13.53,13.53,0,0,1,4.34-3.2,13,13,0,0,1,5.57-1.2,11.62,11.62,0,0,1,5.76,1.41,2,2,0,0,1,1.49-.64q4.14.06,8.29.21a2.1,2.1,0,0,1,2,2.07V47.46a1.92,1.92,0,0,1-2,1.93q-4.16-.15-8.29-.21a2,2,0,0,1-1.51-.69A11.42,11.42,0,0,1,87.48,49.86Zm2.1-17.63a3.4,3.4,0,0,0-1.34.25,2.94,2.94,0,0,0-1,.68,3.42,3.42,0,0,0-.72,1.07,3,3,0,0,0-.24,1.21,3.4,3.4,0,0,0,.25,1.34,3.33,3.33,0,0,0,.71,1.07,3,3,0,0,0,1,.69,3.55,3.55,0,0,0,1.34.25,3.34,3.34,0,0,0,1.3-.25,2.84,2.84,0,0,0,1-.67,3.86,3.86,0,0,0,.76-1.1,2.88,2.88,0,0,0,.25-1.21,3.16,3.16,0,0,0-.26-1.26,3.72,3.72,0,0,0-.75-1.13,3,3,0,0,0-1-.68A3.35,3.35,0,0,0,89.58,32.23Z"/><path class="cls-1" d="M94.64,23.93q4.14.06,8.29.21V47.39q-4.16-.15-8.29-.21V44.6a8.74,8.74,0,0,1-7.16,3.26,12,12,0,0,1-4.69-.9,11.33,11.33,0,0,1-3.74-2.54,11.72,11.72,0,0,1-2.48-3.89,13.72,13.72,0,0,1,0-9.67,12.62,12.62,0,0,1,2.41-4,11.71,11.71,0,0,1,3.69-2.72,11.18,11.18,0,0,1,4.74-1,9.47,9.47,0,0,1,7.25,3.08ZM84.25,35.46a5.39,5.39,0,0,0,1.52,3.79,5.07,5.07,0,0,0,1.69,1.13,5.49,5.49,0,0,0,2.12.41,5.34,5.34,0,0,0,2.07-.4,4.78,4.78,0,0,0,1.69-1.11,5.84,5.84,0,0,0,1.14-1.66,4.82,4.82,0,0,0,.43-2,5.09,5.09,0,0,0-.43-2.07,6,6,0,0,0-1.14-1.71,5.12,5.12,0,0,0-1.69-1.15,5.18,5.18,0,0,0-2.07-.42,5.48,5.48,0,0,0-2.12.4,5.25,5.25,0,0,0-1.69,1.14,5.54,5.54,0,0,0-1.11,1.67A4.83,4.83,0,0,0,84.25,35.46Z"/><path class="cls-1" d="M109.48,49.67a2.14,2.14,0,0,1-2-2.1V33.16l-.72,0a2.11,2.11,0,0,1-2-2.08V24.2a1.9,1.9,0,0,1,2-1.91l.72,0v-5a1.9,1.9,0,0,1,2-1.91q4.13.21,8.24.49a2.19,2.19,0,0,1,2,2.15v5l2.67.2a2.22,2.22,0,0,1,2,2.17v6.84a1.82,1.82,0,0,1-2,1.84l-2.67-.21V48.3a1.85,1.85,0,0,1-2,1.86C115,50,112.23,49.8,109.48,49.67Z"/><path class="cls-1" d="M117.72,31.75V48.16c-2.74-.19-5.49-.36-8.24-.49V31.26l-2.73-.13V24.29l2.73.12v-7q4.13.21,8.24.49v7l4.68.35V32.1C120.84,32,119.28,31.85,117.72,31.75Z"/><path class="cls-1" d="M137.29,52.68a17.29,17.29,0,0,1-5.53-1.59,16.76,16.76,0,0,1-4.7-3.32A16.07,16.07,0,0,1,123.81,43a14.37,14.37,0,0,1-1.23-6,13.86,13.86,0,0,1,1.16-5.75A12.58,12.58,0,0,1,126.92,27a12.39,12.39,0,0,1,4.77-2.54,14.84,14.84,0,0,1,5.83-.43,15.1,15.1,0,0,1,6.42,2.27,2.35,2.35,0,0,1,1.11,1.94v7A1.69,1.69,0,0,1,144,36.82a1.73,1.73,0,0,1-.93.11,2.2,2.2,0,0,1-1.13-.49A6.22,6.22,0,0,0,138.74,35a3.64,3.64,0,0,0-1.45.1,2.9,2.9,0,0,0-1.14.6,2.8,2.8,0,0,0-.75,1,3.49,3.49,0,0,0-.28,1.48,4.06,4.06,0,0,0,1,2.71,3.55,3.55,0,0,0,1.1.83,4.52,4.52,0,0,0,1.49.45,4.38,4.38,0,0,0,3.06-.78,1.86,1.86,0,0,1,1.25-.28,2.46,2.46,0,0,1,.87.31,2.37,2.37,0,0,1,1.13,2v7A1.71,1.71,0,0,1,143.84,52,16.09,16.09,0,0,1,137.29,52.68Z"/><path class="cls-1" d="M143.05,34.93a8.42,8.42,0,0,0-4.3-2,5.7,5.7,0,0,0-2.2.15,4.89,4.89,0,0,0-1.8,1,4.62,4.62,0,0,0-1.2,1.64,5.46,5.46,0,0,0-.43,2.24,6,6,0,0,0,.43,2.29,6.34,6.34,0,0,0,1.18,1.89,6,6,0,0,0,1.79,1.36,6.86,6.86,0,0,0,2.23.67,6.21,6.21,0,0,0,4.3-1.06v7a14,14,0,0,1-5.76.61,14.81,14.81,0,0,1-4.83-1.39,14,14,0,0,1-6.83-7,12.31,12.31,0,0,1-1-5.1,12,12,0,0,1,1-5,10.38,10.38,0,0,1,6.84-5.87,12.86,12.86,0,0,1,5.1-.37A13.09,13.09,0,0,1,143.05,28Z"/><path class="cls-1" d="M165.08,56.09a2.49,2.49,0,0,1-2-2.36V42a10.33,10.33,0,0,0-.22-2.41,1.76,1.76,0,0,0-.32-.75,2.24,2.24,0,0,0-1.26-.64c-1.06-.18-1.47.08-1.69.29a2.93,2.93,0,0,0-.6,2.13V53a1.65,1.65,0,0,1-2,1.67c-2.73-.44-5.45-.86-8.18-1.25a2.39,2.39,0,0,1-2-2.28V13.55a1.7,1.7,0,0,1,2-1.72c2.73.39,5.45.81,8.18,1.25a2.44,2.44,0,0,1,2,2.33v13c.21-.08.42-.14.64-.2a11.66,11.66,0,0,1,4.76,0,12.64,12.64,0,0,1,8,4.6,13.53,13.53,0,0,1,2.75,8.47V56.06a1.58,1.58,0,0,1-2,1.59Q169.15,56.83,165.08,56.09Z"/><path class="cls-1" d="M148.84,13.83c2.73.39,5.45.81,8.18,1.25V32.39a7,7,0,0,1,3.38-2.18,10,10,0,0,1,4,0A10.32,10.32,0,0,1,171,33.88a11,11,0,0,1,2.23,7V55.65q-4.07-.82-8.14-1.56V42.35a13,13,0,0,0-.27-2.91,4.18,4.18,0,0,0-.9-1.84,4.62,4.62,0,0,0-2.61-1.41,3.49,3.49,0,0,0-3.18.71,4.51,4.51,0,0,0-1.1,3.38V52.7c-2.73-.44-5.45-.86-8.18-1.25Z"/><path class="cls-1" d="M27.41,84.9a10.68,10.68,0,0,1-3.68-.61,9.05,9.05,0,0,1-3-1.8A8.37,8.37,0,0,1,18,76.21a8.94,8.94,0,0,1,.47-3,7.44,7.44,0,0,1,1.65-2.63,8.9,8.9,0,0,1,1.81-1.54c.21-.14.43-.27.67-.41a7.94,7.94,0,0,1-1.19-4,7.86,7.86,0,0,1,.75-3.4,8.32,8.32,0,0,1,2-2.68,9.15,9.15,0,0,1,2.95-1.7,10.38,10.38,0,0,1,3.55-.6,10.48,10.48,0,0,1,3.59.6,9,9,0,0,1,3,1.73,8.19,8.19,0,0,1,2,2.68,7.82,7.82,0,0,1,.73,3.37,8.3,8.3,0,0,1-.29,2.23A5.7,5.7,0,0,1,39.15,68l.27-.05h.17a2,2,0,0,1,1.38.56l3.44,3.31a2,2,0,0,1,.22,2.63,18.6,18.6,0,0,1-1.32,1.6q-.31.34-.66.69l3.84,4.1A2,2,0,0,1,45,84.25H37.48A2,2,0,0,1,36,83.64l-.92-1A15.65,15.65,0,0,1,27.41,84.9Zm.82-9.61.12,0-.1-.1Z"/><path class="cls-1" d="M36.55,73.33a26.91,26.91,0,0,0,3-3.34L43,73.3a15.09,15.09,0,0,1-1.19,1.44q-.66.74-1.53,1.53l-.47.44L45,82.25H37.48l-2-2.13a14.63,14.63,0,0,1-8,2.78,8.74,8.74,0,0,1-3-.49A7,7,0,0,1,22.06,81a6.25,6.25,0,0,1-1.55-2.12A6.4,6.4,0,0,1,20,76.21a6.81,6.81,0,0,1,.36-2.3A5.39,5.39,0,0,1,21.53,72,7,7,0,0,1,23,70.75a15.38,15.38,0,0,1,1.94-1l.65-.31-.41-.47a7.06,7.06,0,0,1-1.79-4.3,5.86,5.86,0,0,1,.55-2.54,6.39,6.39,0,0,1,1.54-2,7.16,7.16,0,0,1,2.3-1.33,8.45,8.45,0,0,1,2.88-.48,8.56,8.56,0,0,1,2.92.48,7,7,0,0,1,2.3,1.35,6.06,6.06,0,0,1,1.52,2,5.88,5.88,0,0,1,.54,2.52,6.36,6.36,0,0,1-.21,1.69A4.36,4.36,0,0,1,37,67.74,6.49,6.49,0,0,1,35.64,69a15.5,15.5,0,0,1-2,1.22Zm-8.11-.83c-1.47.91-2.2,1.81-2.2,2.72a2,2,0,0,0,.21.92,2.36,2.36,0,0,0,.59.71,3,3,0,0,0,.85.46,3,3,0,0,0,1,.17,6,6,0,0,0,3.19-1Zm2.5-5.08c1.45-.87,2.17-1.84,2.17-2.91A2.2,2.2,0,0,0,32.54,63a2,2,0,0,0-3.42,1.32C29.12,65.06,29.73,66.1,30.94,67.42Z"/><path class="cls-1" d="M78.34,101.74a2,2,0,0,1-2-1.92q-.87-9-1.74-18-4.78,9.63-9.55,19.36a2.1,2.1,0,0,1-1.74,1.23l-10.14.46a2,2,0,0,1-2-2q-1.29-21.57-2.58-43.1a2.53,2.53,0,0,1,.53-1.73,2,2,0,0,1,1.46-.81q5.17-.31,10.38-.53a2,2,0,0,1,2,2.1q.33,9.93.65,19.85Q68.77,66,73.92,55.46a2,2,0,0,1,1.75-1.18q3.94-.08,7.91-.09a2.11,2.11,0,0,1,2,2q.87,9.93,1.75,19.82,4.59-10.39,9.18-20.52a1.94,1.94,0,0,1,1.8-1.19q5.2.11,10.41.3a2.05,2.05,0,0,1,1.71,1.11,2.27,2.27,0,0,1,.06,2.12C103.73,71.36,97,85.51,90.25,100a2.1,2.1,0,0,1-1.77,1.27Z"/><path class="cls-1" d="M61,57l.9,27.93c4.6-9.53,9.2-19,13.8-28.38,2.64-.05,5.27-.08,7.91-.1Q84.81,70.25,86,84c4.09-9.32,8.19-18.51,12.29-27.5q5.2.09,10.41.26C102,70.34,95.22,84.53,88.48,99l-10.14.46q-1.22-12.4-2.41-24.86c-4.21,8.45-8.41,17-12.61,25.54l-10.14.47q-1.3-21.57-2.59-43.13Q55.77,57.21,61,57Z"/><path class="cls-1" d="M103.9,100.54a1.84,1.84,0,0,1-1.56-.75A2.33,2.33,0,0,1,102,98q3-14.37,6-28.45a2,2,0,0,1,2-1.65q4.59.06,9.19.18a2,2,0,0,1,1.56.84,2.26,2.26,0,0,1,.39,1.8q-3,13.65-6,27.69a2.15,2.15,0,0,1-2,1.75Zm11.69-33.46a6.16,6.16,0,0,1-2.78-.71,5.86,5.86,0,0,1-2.11-1.88,6.59,6.59,0,0,1-1.11-2.69,7.77,7.77,0,0,1,.06-3.07,8.77,8.77,0,0,1,1.16-2.83,9.23,9.23,0,0,1,1.9-2.18,8.27,8.27,0,0,1,2.44-1.4A6.87,6.87,0,0,1,118,51.9a6.37,6.37,0,0,1,2.78.8,6.48,6.48,0,0,1,2.11,1.92A6.84,6.84,0,0,1,124,57.28a7.5,7.5,0,0,1-.07,3A8.49,8.49,0,0,1,122.77,63a9.52,9.52,0,0,1-1.91,2.14,9.09,9.09,0,0,1-2.44,1.43A7.3,7.3,0,0,1,115.59,67.08Z"/><path class="cls-1" d="M111.61,59.28a6.58,6.58,0,0,1,.86-2.13,7.41,7.41,0,0,1,1.5-1.7,6.81,6.81,0,0,1,1.91-1.11A5.25,5.25,0,0,1,118,54a4.29,4.29,0,0,1,1.91.54,4.21,4.21,0,0,1,1.4,1.25,4.53,4.53,0,0,1,.73,1.78,5.2,5.2,0,0,1,0,2.11,6.51,6.51,0,0,1-.87,2.07,7.53,7.53,0,0,1-1.5,1.68,7.09,7.09,0,0,1-1.91,1.12,5.3,5.3,0,0,1-2.1.37,4.25,4.25,0,0,1-1.91-.48,4.08,4.08,0,0,1-1.4-1.24,4.46,4.46,0,0,1-.73-1.79A5.23,5.23,0,0,1,111.61,59.28Zm7.49,10.87q-3,13.72-6,27.82-4.59.18-9.18.39,3-14.33,6-28.35Q114.5,70.06,119.1,70.15Z"/><path class="cls-1" d="M137.64,99a1.89,1.89,0,0,1-1.57-.7,2,2,0,0,1-.38-1.7q1.51-6.72,3-13.33a12,12,0,0,0,.39-2.67,1.29,1.29,0,0,0-.13-.7.58.58,0,0,0-.27-.2,2.78,2.78,0,0,0-.88-.15,3.62,3.62,0,0,0-2.57.87,5.6,5.6,0,0,0-1.55,3q-1.6,7.09-3.21,14.31a2.13,2.13,0,0,1-1.95,1.69l-9.19.42a1.86,1.86,0,0,1-1.56-.73,2.15,2.15,0,0,1-.38-1.78q3-14,6-27.53a2,2,0,0,1,2-1.57q4.61.15,9.19.35a2.11,2.11,0,0,1,1.57.83l.14.22a11,11,0,0,1,1.35-.56,14.67,14.67,0,0,1,5.39-.64,12.58,12.58,0,0,1,5.4,1.39A9.53,9.53,0,0,1,152,73.13,7.54,7.54,0,0,1,153.1,77a16.3,16.3,0,0,1-.5,4q-1.92,7.91-3.83,16a2.1,2.1,0,0,1-2,1.59Z"/><path class="cls-1" d="M125.39,70.3c3.06.08,6.13.18,9.19.3-.25,1.11-.51,2.22-.76,3.33A11.16,11.16,0,0,1,143,70.39a10.37,10.37,0,0,1,4.49,1.1,7.22,7.22,0,0,1,2.74,2.57,5.59,5.59,0,0,1,.84,2.88,14.25,14.25,0,0,1-.45,3.56q-1.92,7.95-3.83,16.12l-9.18.35q1.52-6.69,3-13.25a14.21,14.21,0,0,0,.44-3.11,3.05,3.05,0,0,0-.55-1.91,2.63,2.63,0,0,0-1.17-.89,4.51,4.51,0,0,0-1.56-.28,5.38,5.38,0,0,0-3.9,1.35,7.44,7.44,0,0,0-2.17,4.06q-1.61,7.13-3.21,14.39l-9.18.37Q122.38,83.81,125.39,70.3Z"/><path class="cls-1" d="M159.4,99a7.36,7.36,0,0,1-3-.46A5.76,5.76,0,0,1,154,96.89a5.64,5.64,0,0,1-1.21-2.59,6.8,6.8,0,0,1,.1-3,8.54,8.54,0,0,1,1.26-2.83,9.65,9.65,0,0,1,2.12-2.25,7.71,7.71,0,0,1,.75-.52,2,2,0,0,1-.71-.53,1.82,1.82,0,0,1-.38-1.61q2.92-11.93,5.85-23.28a1.69,1.69,0,0,1,1.94-1.2q4.77.6,9.52,1.26a2.49,2.49,0,0,1,1.56.88,1.75,1.75,0,0,1,.39,1.53q-2.91,10.6-5.83,21.86a1.94,1.94,0,0,1-2,1.36h-.49a5.28,5.28,0,0,1,.62.63,5.58,5.58,0,0,1,1.2,2.48,6.06,6.06,0,0,1-.09,2.8,8.35,8.35,0,0,1-1.26,2.69,10.8,10.8,0,0,1-2.12,2.21,11.11,11.11,0,0,1-2.75,1.56A9.69,9.69,0,0,1,159.4,99Z"/><path class="cls-1" d="M154.84,91.7a6.74,6.74,0,0,1,1-2.21,8.39,8.39,0,0,1,1.71-1.81,7.91,7.91,0,0,1,2.2-1.18,7,7,0,0,1,2.41-.41,5.54,5.54,0,0,1,2.2.44A4.28,4.28,0,0,1,166,87.69a4,4,0,0,1,.83,1.72,4.7,4.7,0,0,1-.08,2.1,6.54,6.54,0,0,1-1,2.11A8,8,0,0,1,164,95.4a8.63,8.63,0,0,1-2.19,1.25,7.38,7.38,0,0,1-2.42.51,5.23,5.23,0,0,1-2.2-.34,3.8,3.8,0,0,1-2.43-2.93A5.1,5.1,0,0,1,154.84,91.7Zm3-7.69q2.93-11.83,5.84-23.09,4.77.55,9.52,1.18-2.91,10.71-5.83,22.07C164.24,84.11,161.07,84.05,157.89,84Z"/><path class="cls-2" d="M23.16,25a8.85,8.85,0,0,0-2.89-1.28,7.13,7.13,0,0,0-2.79-.1,5.27,5.27,0,0,0-2.79,1.31,3.08,3.08,0,0,0-1.08,2.32,1.81,1.81,0,0,0,.54,1.4,3.8,3.8,0,0,0,1.41.77,10.76,10.76,0,0,0,2,.4c.73.09,1.46.19,2.18.31A11.11,11.11,0,0,1,26.08,33a8.45,8.45,0,0,1,2,6,13.53,13.53,0,0,1-.88,4.89,12.28,12.28,0,0,1-2.58,4,14.73,14.73,0,0,1-4.15,3,20.12,20.12,0,0,1-5.57,1.79A18.76,18.76,0,0,1,3,51.16c1.26-2.65,2.51-5.29,3.77-7.93a12.16,12.16,0,0,0,3.91,1.88,9,9,0,0,0,3.83.16,5.47,5.47,0,0,0,3.22-1.56,3.65,3.65,0,0,0,1.06-2.44,2.81,2.81,0,0,0-.27-1.3,2.29,2.29,0,0,0-.91-.89,6.16,6.16,0,0,0-1.64-.6c-.68-.15-1.49-.31-2.45-.47-1.15-.15-2.26-.35-3.36-.58a8.5,8.5,0,0,1-2.92-1.18,6.08,6.08,0,0,1-2.06-2.33,8.66,8.66,0,0,1-.79-4,13.57,13.57,0,0,1,.83-4.76,13,13,0,0,1,2.34-4,13.44,13.44,0,0,1,3.68-3,15.39,15.39,0,0,1,4.89-1.69,19.2,19.2,0,0,1,5.27-.18,19.71,19.71,0,0,1,5.29,1.24Z"/><path class="cls-3" d="M50.43,31.3a7.07,7.07,0,0,0-4.31-1,6.29,6.29,0,0,0-2.2.64,6.08,6.08,0,0,0-1.79,1.35,5.89,5.89,0,0,0-1.2,1.9,6.13,6.13,0,0,0-.44,2.34,5.29,5.29,0,0,0,.44,2.19,4.67,4.67,0,0,0,1.17,1.64,4.59,4.59,0,0,0,1.8,1,5.81,5.81,0,0,0,2.22.18,7.54,7.54,0,0,0,4.31-2v7a16.21,16.21,0,0,1-5.76,1.88A13.78,13.78,0,0,1,39.84,48a10.77,10.77,0,0,1-4-2A10.08,10.08,0,0,1,33,42.51a10.77,10.77,0,0,1-1-4.87,13.62,13.62,0,0,1,1-5.19,14.49,14.49,0,0,1,2.72-4.29,14.16,14.16,0,0,1,4.1-3.08,14.66,14.66,0,0,1,5.1-1.49,11.33,11.33,0,0,1,5.54.73Z"/><path class="cls-4" d="M55.11,23.38c2.75-.21,5.49-.4,8.24-.56v3.8a10.15,10.15,0,0,1,3.23-3.37A8.82,8.82,0,0,1,71,21.93l.71,0a5.69,5.69,0,0,1,.88.05V29.8a7.66,7.66,0,0,0-3.55-.67,5.57,5.57,0,0,0-4.3,1.92,7.85,7.85,0,0,0-1.43,5.05v10c-2.75.16-5.49.35-8.24.57Z"/><path class="cls-5" d="M94.64,22.14q4.14.06,8.29.21V45.6q-4.16-.15-8.29-.21V42.81a8.73,8.73,0,0,1-7.16,3.25,11.81,11.81,0,0,1-4.69-.89,11.33,11.33,0,0,1-3.74-2.54,11.72,11.72,0,0,1-2.48-3.89,13.72,13.72,0,0,1,0-9.67,12.51,12.51,0,0,1,2.41-4,11.71,11.71,0,0,1,3.69-2.72,11,11,0,0,1,4.74-1,9.48,9.48,0,0,1,7.25,3.09ZM84.25,33.66a5.26,5.26,0,0,0,.41,2.11,5.39,5.39,0,0,0,1.11,1.69,5.33,5.33,0,0,0,1.69,1.13,5.48,5.48,0,0,0,2.12.4,5.15,5.15,0,0,0,2.07-.39,4.94,4.94,0,0,0,1.69-1.12,5.7,5.7,0,0,0,1.14-1.66,4.77,4.77,0,0,0,.43-2,5,5,0,0,0-.43-2.07A5.81,5.81,0,0,0,93.34,30a5.14,5.14,0,0,0-1.69-1.16,5.54,5.54,0,0,0-2.07-.42,5.49,5.49,0,0,0-2.12.41A5,5,0,0,0,85.77,30a5.49,5.49,0,0,0-1.11,1.66A4.87,4.87,0,0,0,84.25,33.66Z"/><path class="cls-6" d="M117.72,30v16.4q-4.11-.29-8.24-.5V29.47l-2.73-.13V22.5l2.73.13v-7q4.13.21,8.24.5v7q2.34.16,4.68.36v6.84Z"/><path class="cls-7" d="M143,33.22a8.44,8.44,0,0,0-4.3-2,5.53,5.53,0,0,0-2.2.14,4.82,4.82,0,0,0-1.79.95,4.71,4.71,0,0,0-1.2,1.64,5.46,5.46,0,0,0-.43,2.24,6,6,0,0,0,.43,2.29,6.39,6.39,0,0,0,1.18,1.9,6.06,6.06,0,0,0,1.79,1.36,6.57,6.57,0,0,0,2.22.67,6.19,6.19,0,0,0,4.3-1v7a14.16,14.16,0,0,1-5.75.6,15.09,15.09,0,0,1-4.83-1.41,14.17,14.17,0,0,1-4-2.88,13.77,13.77,0,0,1-2.79-4.11,12.31,12.31,0,0,1-1-5.1,12,12,0,0,1,1-5,10.77,10.77,0,0,1,2.73-3.69,10.65,10.65,0,0,1,4.11-2.16,12.83,12.83,0,0,1,5.1-.36,13.13,13.13,0,0,1,5.52,2Z"/><path class="cls-8" d="M148.83,12.14c2.73.39,5.45.82,8.18,1.27V30.73a6.93,6.93,0,0,1,3.38-2.17,9.78,9.78,0,0,1,4,0,10.36,10.36,0,0,1,6.59,3.7,11.1,11.1,0,0,1,2.22,7V54.06c-2.71-.56-5.42-1.1-8.13-1.6V40.72a13,13,0,0,0-.27-2.91,4.13,4.13,0,0,0-.9-1.84,4.57,4.57,0,0,0-2.61-1.42,3.48,3.48,0,0,0-3.18.69,4.44,4.44,0,0,0-1.1,3.37V51c-2.73-.45-5.45-.88-8.18-1.27Z"/><path class="cls-9" d="M36.55,71.33a26.91,26.91,0,0,0,3-3.34L43,71.3a15.09,15.09,0,0,1-1.19,1.44q-.66.74-1.53,1.53l-.47.44L45,80.25H37.48l-2-2.13a14.63,14.63,0,0,1-8,2.78,8.74,8.74,0,0,1-3-.49A7,7,0,0,1,22.06,79a6.25,6.25,0,0,1-1.55-2.12A6.4,6.4,0,0,1,20,74.21a6.81,6.81,0,0,1,.36-2.3A5.39,5.39,0,0,1,21.53,70,7,7,0,0,1,23,68.75a15.38,15.38,0,0,1,1.94-1l.65-.31-.41-.47a7.06,7.06,0,0,1-1.79-4.3,5.86,5.86,0,0,1,.55-2.54,6.39,6.39,0,0,1,1.54-2,7.16,7.16,0,0,1,2.3-1.33,8.45,8.45,0,0,1,2.88-.48,8.56,8.56,0,0,1,2.92.48,7,7,0,0,1,2.3,1.35,6.06,6.06,0,0,1,1.52,2,5.88,5.88,0,0,1,.54,2.52,6.36,6.36,0,0,1-.21,1.69A4.36,4.36,0,0,1,37,65.74,6.49,6.49,0,0,1,35.64,67a16.64,16.64,0,0,1-2,1.23Zm-8.11-.83c-1.47.91-2.2,1.81-2.2,2.72a2,2,0,0,0,.21.92,2.36,2.36,0,0,0,.59.71,3,3,0,0,0,.85.46,3,3,0,0,0,1,.17,6,6,0,0,0,3.19-1Zm2.5-5.08c1.45-.87,2.17-1.84,2.17-2.91A2.2,2.2,0,0,0,32.54,61a2,2,0,0,0-3.42,1.32C29.12,63.06,29.73,64.1,30.94,65.42Z"/><path class="cls-10" d="M61,55l.9,28c4.6-9.54,9.2-19.07,13.8-28.48,2.64-.05,5.27-.09,7.91-.12Q84.8,68.29,86,82.11c4.09-9.36,8.19-18.6,12.29-27.63q5.2.08,10.41.26C102,68.36,95.22,82.63,88.48,97.19l-10.14.45Q77.13,85.19,75.93,72.7c-4.21,8.48-8.41,17-12.61,25.6l-10.14.44q-1.3-21.57-2.59-43.11Q55.78,55.3,61,55Z"/><path class="cls-11" d="M111.61,57.26a6.58,6.58,0,0,1,.86-2.13,7.26,7.26,0,0,1,1.5-1.71,6.58,6.58,0,0,1,1.91-1.11A5.25,5.25,0,0,1,118,52a4.51,4.51,0,0,1,1.92.54,4.45,4.45,0,0,1,1.39,1.27,4.53,4.53,0,0,1,.73,1.78,5.25,5.25,0,0,1,0,2.12,6.51,6.51,0,0,1-.87,2.07,7.36,7.36,0,0,1-1.5,1.69,6.84,6.84,0,0,1-1.91,1.12,5.3,5.3,0,0,1-2.1.37,4.13,4.13,0,0,1-1.91-.49,3.86,3.86,0,0,1-1.39-1.24,4.38,4.38,0,0,1-.74-1.8A5.28,5.28,0,0,1,111.61,57.26Zm7.49,10.92q-3,13.77-6,27.93l-9.19.4q3-14.39,6-28.47Q114.5,68.08,119.1,68.18Z"/><path class="cls-12" d="M125.39,68.34q4.61.14,9.19.31c-.25,1.11-.51,2.22-.76,3.34A11.11,11.11,0,0,1,143,68.46a10.5,10.5,0,0,1,4.49,1.11,7.3,7.3,0,0,1,2.74,2.57A5.58,5.58,0,0,1,151.1,75a14.2,14.2,0,0,1-.45,3.56q-1.92,7.94-3.83,16.11l-9.18.38q1.52-6.7,3-13.27a14.21,14.21,0,0,0,.44-3.11,3.05,3.05,0,0,0-.55-1.91,2.63,2.63,0,0,0-1.17-.89,4.51,4.51,0,0,0-1.56-.29,5.47,5.47,0,0,0-3.9,1.35A7.5,7.5,0,0,0,131.77,81q-1.61,7.15-3.21,14.43l-9.19.4Q122.39,81.88,125.39,68.34Z"/><path class="cls-13" d="M154.84,89.73a6.79,6.79,0,0,1,1-2.2,8.12,8.12,0,0,1,1.71-1.8,7.91,7.91,0,0,1,2.2-1.18,7.19,7.19,0,0,1,2.41-.42,5.57,5.57,0,0,1,2.2.44A4.26,4.26,0,0,1,166,85.72a3.91,3.91,0,0,1,.83,1.71,4.62,4.62,0,0,1-.08,2.08,6.49,6.49,0,0,1-1,2.1A8.23,8.23,0,0,1,164,93.39a8.94,8.94,0,0,1-2.19,1.25,7.45,7.45,0,0,1-2.42.52,5.23,5.23,0,0,1-2.2-.33,3.8,3.8,0,0,1-2.44-2.91A5.12,5.12,0,0,1,154.84,89.73Zm3-7.66q2.93-11.79,5.84-23c3.17.39,6.35.81,9.52,1.25Q170.34,71,167.42,82.22C164.24,82.16,161.07,82.11,157.89,82.07Z"/><path class="cls-14" d="M101.06,8.77a3.25,3.25,0,0,0,.33-1.42,3,3,0,0,0-.3-1.34,2.92,2.92,0,0,0,1.61-2.69A3.08,3.08,0,0,0,99.35.25H94.06a3.14,3.14,0,0,0-1.9.63A3.08,3.08,0,0,0,90,0a3.39,3.39,0,0,0-3.14,2.23l-.1.22-.09-.2A3.41,3.41,0,0,0,83.46,0a3,3,0,0,0-2.64,1.42A6.09,6.09,0,0,0,76.74,0a5.81,5.81,0,0,0-4.68,2.06C70.82.54,68.31,0,66.9,0a6.39,6.39,0,0,0-5,2.2A6.27,6.27,0,0,0,57,.25H54.21a3.06,3.06,0,0,0-2.77,1.67A6.16,6.16,0,0,0,46.82,0,6.07,6.07,0,0,0,42,2.18,6.28,6.28,0,0,0,37.11.25H34.28A3.14,3.14,0,0,0,31.11,3.5v8.05a3.16,3.16,0,1,0,6.32,0V11.3a7,7,0,0,0,3.34-.91A6.41,6.41,0,0,0,51.35,13a3.09,3.09,0,0,0,2.86,1.84,3.14,3.14,0,0,0,3.16-3.25V11.3a7,7,0,0,0,3.33-.91,6.41,6.41,0,0,0,6.22,4.36,8.78,8.78,0,0,0,4.47-1.26,3.15,3.15,0,0,0,5.36-.4,3.16,3.16,0,0,0,4.75,1,3.07,3.07,0,0,0,2,.67,3.1,3.1,0,0,0,3.12-2.93,1.22,1.22,0,0,0,.27,0A3.12,3.12,0,0,0,90,14.8a3,3,0,0,0,2.19-.88,3.16,3.16,0,0,0,1.9.63h5.29a3.08,3.08,0,0,0,3.35-3.07A2.92,2.92,0,0,0,101.06,8.77Z"/><path class="cls-15" d="M33,3.5a1.21,1.21,0,0,1,1.23-1.33h2.84c2.6,0,4.23,1.24,4.23,3.61s-1.63,3.6-4.23,3.6h-1.6v2.17a1.24,1.24,0,1,1-2.47,0Zm2.47.9V7.16H37c1.09,0,1.84-.43,1.84-1.38S38,4.4,37,4.4Z"/><path class="cls-16" d="M42.23,7.39c0-3,1.49-5.47,4.59-5.47s4.61,2.48,4.61,5.47-1.51,5.49-4.61,5.49S42.23,10.37,42.23,7.39Z"/><path class="cls-17" d="M53,3.5a1.22,1.22,0,0,1,1.24-1.33H57c2.6,0,4.23,1.24,4.23,3.61S59.64,9.38,57,9.38H55.45v2.17a1.24,1.24,0,1,1-2.48,0Zm2.48.9V7.16h1.43c1.09,0,1.85-.43,1.85-1.38S58,4.4,56.88,4.4Z"/><path class="cls-18" d="M62.11,7.39c0-3.28,1.85-5.47,4.79-5.47,1.15,0,4,.63,4,2.17a1.17,1.17,0,0,1-1.15,1.19,1.76,1.76,0,0,1-1.16-.52A2.53,2.53,0,0,0,67,4.18c-1.43,0-2.27,1.31-2.27,3.21s.84,3.19,2.4,3.19a2.75,2.75,0,0,0,1.45-.39V8.88a6,6,0,0,1-.7,0c-1,0-1.43-.44-1.43-1.16s.5-1.15,1.36-1.15h2A1.22,1.22,0,0,1,71,7.93v2.78a1.24,1.24,0,0,1-.63,1.16,6.92,6.92,0,0,1-3.44,1C63.91,12.82,62.11,10.47,62.11,7.39Z"/><path class="cls-19" d="M72.71,11.55V6a4,4,0,1,1,8.08,0v5.58a1.24,1.24,0,1,1-2.47,0v-2H75.18v2a1.24,1.24,0,1,1-2.47,0Zm5.61-4.21V6.55c0-1.4-.25-2.37-1.58-2.37s-1.56,1-1.56,2.37v.79Z"/><path class="cls-20" d="M82.24,3.25a1.18,1.18,0,0,1,1.22-1.33A1.56,1.56,0,0,1,84.86,3l1.85,4,1.85-4A1.55,1.55,0,0,1,90,1.92a1.17,1.17,0,0,1,1.22,1.33v8.3A1.19,1.19,0,0,1,90,12.88a1.2,1.2,0,0,1-1.22-1.33V7l-.89,2.1a1.21,1.21,0,0,1-2.3,0L84.66,7v4.54a1.22,1.22,0,1,1-2.42,0Z"/><path class="cls-21" d="M92.82,11.3V3.5a1.22,1.22,0,0,1,1.24-1.33h5.29c.89,0,1.43.4,1.43,1.15s-.48,1.17-1.43,1.17c-1.12,0-3-.06-4.06-.08V6.26c.95,0,2,0,2.77,0,1,0,1.41.43,1.41,1.14S99,8.5,98.06,8.5l-2.77,0v1.91c1,0,2.94-.07,4.06-.07,1,0,1.43.45,1.43,1.17s-.54,1.15-1.43,1.15H94.06A1.22,1.22,0,0,1,92.82,11.3Z"/></g></g></svg>